<?xml version="1.0" encoding="utf-8"?>
<!-- Svg Vector Icons : http://www.onlinewebfonts.com/icon -->
<!DOCTYPE svg PUBLIC "-//W3C//DTD SVG 1.1//EN" "http://www.w3.org/Graphics/SVG/1.1/DTD/svg11.dtd">
<svg version="1.1" xmlns="http://www.w3.org/2000/svg" xmlns:xlink="http://www.w3.org/1999/xlink" x="0px" y="0px" viewBox="0 0 1000 1000" enable-background="new 0 0 1000 1000" xml:space="preserve">
<metadata> Svg Vector Icons : http://www.onlinewebfonts.com/icon </metadata>
<g><g transform="translate(0.000000,511.000000) scale(0.100000,-0.100000)"><path d="M2259.6,4979.4c-496.1-137.5-971.3-582.8-1276.2-1201.4c-188.3-376.6-292.9-714.3-367.6-1195.5c-35.9-230.1-53.8-7277.4-17.9-7334.2c53.8-86.7,164.4-26.9,355.6,185.3l197.3,215.2l218.2-218.2c119.5-116.6,245.1-215.2,274.9-215.2c32.9,0,146.4,95.6,260,218.2l200.2,215.2l221.2-218.2c119.5-116.6,239.1-215.2,263-215.2c23.9,0,143.5,98.6,263,215.2l218.2,218.2l206.2-215.2c110.6-119.5,227.1-218.2,257-218.2s155.4,98.6,275,215.2l218.2,218.2l200.2-218.2c122.5-131.5,224.1-215.2,260-215.2c32.9,0,155.4,95.6,275,215.2l215.2,215.2l200.3-218.2c161.4-176.3,215.2-212.2,277.9-206.2l77.7,9l9,1817.1l6,1814.1h965.3c1052,0,1231.3,20.9,1518.2,167.4c636.6,319.8,1114.8,1055,1330,2047.2c80.7,358.6,80.7,1395.7,3,1754.3c-221.2,998.2-696.4,1718.5-1353.9,2044.3l-260,128.5l-2677.8,6C3024.7,5012.3,2361.3,5006.3,2259.6,4979.4z M6518.5,4740.3c-490.1-358.6-866.7-977.3-1058-1730.4l-83.7-337.7l-146.4-14.9c-140.5-14.9-146.5-17.9-146.5-104.6c0-83.7,9-89.7,128.5-104.6l125.5-14.9V-956.1c0-1864.9-9-3398.1-17.9-3407.1c-9-9-80.7,53.8-158.4,140.5c-77.7,86.7-161.4,155.4-185.3,155.4c-20.9,0-143.4-101.6-266-224.2l-224.2-224.2L4283-4291.4c-113.6,122.5-227.1,224.2-254,224.2c-29.9,0-149.4-98.6-269-218.2l-218.2-221.2l-212.2,221.2c-116.6,119.5-233.1,218.2-260,218.2s-143.5-98.6-263-215.2l-218.2-215.2l-218.2,215.2c-119.5,116.6-239.1,215.2-266,215.2c-26.9,0-140.5-101.6-254-224.2L1644-4512.6l-221.2,221.2c-122.5,122.5-245.1,224.2-275,224.2c-26.9,0-107.6-65.8-179.3-149.4c-71.7-80.7-137.5-149.4-149.4-149.4c-29.9,0-32.9,6371.8-6,6631.9L834,2448h125.5c239.1,0,260,179.3,26.9,209.2c-110.6,14.9-116.6,20.9-104.6,104.6c41.8,370.6,349.7,1078.9,600.7,1392.7c275,343.7,618.7,567.8,947.4,624.6c77.7,12,1052,23.9,2160.8,26.9h2017.3L6518.5,4740.3z M7597.4,4776.2c735.2-134.5,1330-932.5,1554.1-2077.1c71.7-367.6,71.7-1120.8-3-1506.3c-272-1446.5-1171.6-2319.2-2098-2035.3C5577.1-397.2,5054,2427.1,6144.9,4032c257,373.6,666.5,675.5,1019.1,744.2C7349.3,4812.1,7397.2,4812.1,7597.4,4776.2z M5938.7-232.8c125.5-182.3,394.5-469.2,546.9-579.8l116.6-86.7h-526h-529V-188l3,708.3l143.5-304.9C5774.3,51.1,5884.9-152.1,5938.7-232.8z"/><path d="M1524.4,2582.5c-12-44.8-6-92.6,9-107.6c14.9-14.9,191.3-23.9,400.5-20.9l370.6,9v89.7v89.7l-379.6,9l-379.6,9L1524.4,2582.5z"/><path d="M2719.9,2615.4c-9-23.9-11.9-68.8-6-98.7c9-47.8,50.8-53.8,388.5-62.8c349.7-6,379.6-3,394.5,47.8c12,32.9,12,80.7,0,107.6c-14.9,41.8-71.7,47.8-388.5,47.8C2812.5,2657.2,2731.9,2648.3,2719.9,2615.4z"/><path d="M3900.4,2609.4c-26.9-32.9-29.9-59.8-6-95.6c26.9-41.9,86.7-50.8,397.5-50.8c310.8,0,370.6,9,397.5,50.8c23.9,35.9,20.9,62.7-6,95.6c-32.9,38.8-107.6,47.8-391.5,47.8C4008,2657.2,3933.3,2648.3,3900.4,2609.4z"/><path d="M7205.9,3012.9c-227.1-65.8-472.2-394.5-552.9-741.2c-23.9-95.6-32.9-272-23.9-448.3c11.9-248.1,29.9-322.8,113.6-508.1c260-561.9,759.1-675.5,1129.7-257c206.2,236.1,260,409.4,260,866.7c0,457.3-53.8,630.6-260,866.7C7675.1,3012.9,7456.9,3087.6,7205.9,3012.9z M7645.2,2699.1c215.2-206.2,331.7-636.6,266-989.3c-44.8-245-146.4-451.3-286.9-570.8c-334.7-295.9-762.1,116.6-771.1,741.2c-6,394.5,128.5,732.2,343.7,869.7C7334.4,2833.6,7522.7,2812.6,7645.2,2699.1z"/></g></g>
</svg>